# xmcd CD database file
#
# Track frame offsets:
#	150
#	21539
#	46384
#	65739
#	94295
#	117526
#	136088
#	161642
#	185870
#
# Disc length: 2846 seconds
#
# Revision: 0
# Processed by: cddbd v1.5.2PL0 Copyright (c) Steve Scherf et al.
# Submitted via: CDex 1.51
#
DISCID=890b1c09
DTITLE=Next Jazz - Next Generation North Sea Jazz Festival Cd4/5
DYEAR=2011
DGENRE=Jazz
TTITLE0=N'dambi - L.I.E.
TTITLE1=Lizz Wright - I remember, I believe
TTITLE2=Boney James - Don't let me be lonely tonight
TTITLE3=Karrin Allyson - Nature Boy
TTITLE4=Nikky Yanofsky - Over de Rainbow
TTITLE5=Matt Dusk - Learnin' The Blues
TTITLE6=Michiel Borstlap - Gramercy Park
TTITLE7=Nils Petter Molvaer - Leaps and bounds
TTITLE8=Michel Portal - Alto Blues
EXTD=YEAR: 2011
EXTT0=
EXTT1=
EXTT2=
EXTT3=
EXTT4=
EXTT5=
EXTT6=
EXTT7=
EXTT8=
PLAYORDER=
